<?xml version="1.0" encoding="UTF-8" standalone="no"?>
<svg
   xmlns:dc="http://purl.org/dc/elements/1.1/"
   xmlns:cc="http://creativecommons.org/ns#"
   xmlns:rdf="http://www.w3.org/1999/02/22-rdf-syntax-ns#"
   xmlns:svg="http://www.w3.org/2000/svg"
   xmlns="http://www.w3.org/2000/svg"
   xmlns:xlink="http://www.w3.org/1999/xlink"
   version="1.1"
   id="svg5198"
   viewBox="0 0 240 54"
   height="54"
   width="240">
  <defs
     id="defs5200">
    <linearGradient
       y2="726.388"
       x2="318.29666"
       y1="593.388"
       x1="372.85916"
       gradientTransform="matrix(0.20080983,0,0,0.21896865,-2283.9012,2088.7386)"
       gradientUnits="userSpaceOnUse"
       id="linearGradient5313"
       xlink:href="#linearGradient4163" />
    <linearGradient
       id="linearGradient4163">
      <stop
         style="stop-color:#ff7004;stop-opacity:1;"
         offset="0"
         id="stop4165" />
      <stop
         style="stop-color:#ba4704;stop-opacity:1;"
         offset="1"
         id="stop4167" />
    </linearGradient>
    <linearGradient
       y2="683.48932"
       x2="454.04785"
       y1="637.05853"
       x1="277.62738"
       gradientTransform="matrix(0.10040491,0.18963241,-0.1739064,0.10948433,-2121.0404,2127.0154)"
       gradientUnits="userSpaceOnUse"
       id="linearGradient5315"
       xlink:href="#linearGradient4105" />
    <linearGradient
       id="linearGradient4105">
      <stop
         style="stop-color:#f7f10e;stop-opacity:1;"
         offset="0"
         id="stop4107" />
      <stop
         style="stop-color:#c58907;stop-opacity:1;"
         offset="1"
         id="stop4109" />
    </linearGradient>
    <linearGradient
       y2="612.48419"
       x2="401.18628"
       y1="725.2688"
       x1="253.83762"
       gradientTransform="matrix(-0.10040491,0.18963241,-0.1739064,-0.10948433,-2070.0097,2299.9493)"
       gradientUnits="userSpaceOnUse"
       id="linearGradient5317"
       xlink:href="#linearGradient4123" />
    <linearGradient
       id="linearGradient4123">
      <stop
         style="stop-color:#17b414;stop-opacity:1;"
         offset="0"
         id="stop4125" />
      <stop
         style="stop-color:#176314;stop-opacity:1;"
         offset="1"
         id="stop4127" />
    </linearGradient>
    <linearGradient
       y2="581.76617"
       x2="342.12479"
       y1="701.76617"
       x1="326.12479"
       gradientTransform="matrix(-0.20080983,0,0,-0.21896865,-2181.8397,2434.6067)"
       gradientUnits="userSpaceOnUse"
       id="linearGradient5319"
       xlink:href="#linearGradient4133" />
    <linearGradient
       id="linearGradient4133">
      <stop
         style="stop-color:#1476e6;stop-opacity:1;"
         offset="0"
         id="stop4135" />
      <stop
         style="stop-color:#143e9a;stop-opacity:1;"
         offset="1"
         id="stop4137" />
    </linearGradient>
    <linearGradient
       y2="643.98676"
       x2="273.62738"
       y1="694.41754"
       x1="456.97604"
       gradientTransform="matrix(-0.10040491,-0.18963241,0.1739064,-0.10948433,-2344.7005,2396.3299)"
       gradientUnits="userSpaceOnUse"
       id="linearGradient5321"
       xlink:href="#linearGradient4143" />
    <linearGradient
       id="linearGradient4143">
      <stop
         style="stop-color:#d000d0;stop-opacity:1;"
         offset="0"
         id="stop4145" />
      <stop
         style="stop-color:#760076;stop-opacity:1;"
         offset="1"
         id="stop4147" />
    </linearGradient>
    <linearGradient
       y2="710.34058"
       x2="263.69403"
       y1="650.05341"
       x1="432.1145"
       gradientTransform="matrix(0.10040491,-0.18963241,0.1739064,0.10948433,-2395.7313,2223.3959)"
       gradientUnits="userSpaceOnUse"
       id="linearGradient5323"
       xlink:href="#linearGradient4153" />
    <linearGradient
       id="linearGradient4153">
      <stop
         style="stop-color:#d70016;stop-opacity:1;"
         offset="0"
         id="stop4155" />
      <stop
         style="stop-color:#8d0016;stop-opacity:1;"
         offset="1"
         id="stop4157" />
    </linearGradient>
    <linearGradient
       y2="288"
       x2="256"
       y1="224"
       x1="256"
       gradientTransform="matrix(0.20080983,0,0,0.21896865,-2284.2778,2205.6166)"
       gradientUnits="userSpaceOnUse"
       id="linearGradient5325"
       xlink:href="#linearGradient4206" />
    <linearGradient
       id="linearGradient4206">
      <stop
         style="stop-color:#ffffff;stop-opacity:1;"
         offset="0"
         id="stop4208" />
      <stop
         style="stop-color:#b0b0b0;stop-opacity:1;"
         offset="1"
         id="stop4210" />
    </linearGradient>
    <linearGradient
       y2="726.388"
       x2="318.29666"
       y1="593.388"
       x1="372.85916"
       gradientTransform="matrix(0.20080983,0,0,0.21896865,-2283.9012,2088.7386)"
       gradientUnits="userSpaceOnUse"
       id="linearGradient5909"
       xlink:href="#linearGradient4163" />
    <linearGradient
       y2="683.48932"
       x2="454.04785"
       y1="637.05853"
       x1="277.62738"
       gradientTransform="matrix(0.10040491,0.18963241,-0.1739064,0.10948433,-2121.0404,2127.0154)"
       gradientUnits="userSpaceOnUse"
       id="linearGradient5911"
       xlink:href="#linearGradient4105" />
    <linearGradient
       y2="612.48419"
       x2="401.18628"
       y1="725.2688"
       x1="253.83762"
       gradientTransform="matrix(-0.10040491,0.18963241,-0.1739064,-0.10948433,-2070.0097,2299.9493)"
       gradientUnits="userSpaceOnUse"
       id="linearGradient5913"
       xlink:href="#linearGradient4123" />
    <linearGradient
       y2="581.76617"
       x2="342.12479"
       y1="701.76617"
       x1="326.12479"
       gradientTransform="matrix(-0.20080983,0,0,-0.21896865,-2181.8397,2434.6067)"
       gradientUnits="userSpaceOnUse"
       id="linearGradient5915"
       xlink:href="#linearGradient4133" />
    <linearGradient
       y2="643.98676"
       x2="273.62738"
       y1="694.41754"
       x1="456.97604"
       gradientTransform="matrix(-0.10040491,-0.18963241,0.1739064,-0.10948433,-2344.7005,2396.3299)"
       gradientUnits="userSpaceOnUse"
       id="linearGradient5917"
       xlink:href="#linearGradient4143" />
    <linearGradient
       y2="710.34058"
       x2="263.69403"
       y1="650.05341"
       x1="432.1145"
       gradientTransform="matrix(0.10040491,-0.18963241,0.1739064,0.10948433,-2395.7313,2223.3959)"
       gradientUnits="userSpaceOnUse"
       id="linearGradient5919"
       xlink:href="#linearGradient4153" />
    <linearGradient
       y2="288"
       x2="256"
       y1="224"
       x1="256"
       gradientTransform="matrix(0.20080983,0,0,0.21896865,-2284.2778,2205.6166)"
       gradientUnits="userSpaceOnUse"
       id="linearGradient5921"
       xlink:href="#linearGradient4206" />
  </defs>
  <metadata
     id="metadata5203">
    <rdf:RDF>
      <cc:Work
         rdf:about="">
        <dc:format>image/svg+xml</dc:format>
        <dc:type
           rdf:resource="http://purl.org/dc/dcmitype/StillImage" />
        <dc:title></dc:title>
      </cc:Work>
    </rdf:RDF>
  </metadata>
  <g
     transform="translate(5.1070854e-6,-998.36212)"
     id="layer1">
    <g
       transform="matrix(0.31771205,0,0,0.31771205,-345.52317,2722.8022)"
       id="g5246">
      <g
         transform="translate(-27.527365,0)"
         id="g5339">
        <g
           id="g5248"
           transform="matrix(4.7790878,0,0,4.6268275,1141.4006,-5434.1434)">
          <g
             id="g5327"
             transform="translate(21.029118,11.99526)">
            <g
               id="g5251"
               style="display:inline;fill:#000000;fill-opacity:1"
               transform="translate(-21.231184,-448.96066)">
              <path
                 d="M 29.190406,457.00964 A 16.666666,16.666666 0 0 1 12.781674,473.67431 16.666666,16.666666 0 0 1 -4.1349426,457.52545 16.666666,16.666666 0 0 1 11.750185,440.36094 16.666666,16.666666 0 0 1 29.158479,455.97853"
                 id="path5257"
                 style="display:inline;opacity:0.95;fill:#1a1a1a;fill-opacity:1;stroke:none" />
            </g>
            <g
               id="g5275"
               style="display:inline"
               transform="translate(-52.260976,-463.39581)">
              <path
                 style="display:inline;fill:url(#linearGradient5909);fill-opacity:1;fill-rule:nonzero;stroke:none;filter:url(#filter3903)"
                 d="m 47.212688,454.13229 -4.299902,12.2408 16.933138,-2.84885 c -2.508089,-4.81664 -7.128584,-8.35607 -12.633236,-9.39195 z"
                 id="path5277" />
              <path
                 id="path5279"
                 d="m 60.376177,465.95747 -12.75079,2.39657 10.933735,13.2401 c 2.917297,-4.58039 3.672284,-10.35157 1.817055,-15.63667 z"
                 style="display:inline;fill:url(#linearGradient5911);fill-opacity:1;fill-rule:nonzero;stroke:none;filter:url(#filter3903)" />
              <path
                 style="display:inline;fill:url(#linearGradient5913);fill-opacity:1;fill-rule:nonzero;stroke:none;filter:url(#filter3903)"
                 d="m 56.71702,483.26997 -8.450887,-9.84423 -5.999404,16.08895 c 5.425387,0.23626 10.800869,-1.99549 14.450291,-6.24472 z"
                 id="path5281" />
              <path
                 id="path5283"
                 d="m 39.894374,488.75729 4.299903,-12.24078 -16.933138,2.84883 c 2.50809,4.81665 7.128585,8.35608 12.633235,9.39195 z"
                 style="display:inline;fill:url(#linearGradient5915);fill-opacity:1;fill-rule:nonzero;stroke:none;filter:url(#filter3903)" />
              <path
                 style="display:inline;fill:url(#linearGradient5917);fill-opacity:1;fill-rule:nonzero;stroke:none;filter:url(#filter3903)"
                 d="m 26.730886,476.93212 12.75079,-2.39657 -10.933734,-13.24011 c -2.917297,4.58039 -3.672285,10.35157 -1.817056,15.63668 z"
                 id="path5285" />
              <path
                 id="path5287"
                 d="m 30.390043,459.61962 8.450887,9.84422 5.999405,-16.08895 c -5.425387,-0.23625 -10.80087,1.9955 -14.450292,6.24473 z"
                 style="display:inline;fill:url(#linearGradient5919);fill-opacity:1;fill-rule:nonzero;stroke:none;filter:url(#filter3903)" />
              <circle
                 style="fill:url(#linearGradient5921);fill-opacity:1;stroke:none"
                 id="circle5289"
                 cx="43.553532"
                 cy="471.44479"
                 r="2.4806201" />
            </g>
          </g>
        </g>
        <g
           id="g5307"
           transform="translate(20,4.1053456e-5)">
          <text
             transform="scale(1.0804279,0.92555921)"
             id="text5309"
             y="-5722.541"
             x="1184.5912"
             style="font-style:normal;font-variant:normal;font-weight:600;font-stretch:normal;font-size:124.41329956px;line-height:125%;font-family:Exo;-inkscape-font-specification:'Exo, Semi-Bold';text-align:start;letter-spacing:0px;word-spacing:0px;writing-mode:lr-tb;text-anchor:start;fill:#fcfcfc;fill-opacity:1;stroke:none;stroke-width:1px;stroke-linecap:butt;stroke-linejoin:miter;stroke-opacity:1"
             xml:space="preserve"><tspan
               y="-5722.541"
               x="1184.5912"
               id="tspan5311">darktable</tspan></text>
        </g>
      </g>
    </g>
    <g
       id="g5356"
       transform="matrix(0.31771205,0,0,0.31771205,-345.52317,2722.8022)">
      <g
         id="g5358"
         transform="translate(-27.527365,0)">
        <g
           transform="translate(20,4.1053456e-5)"
           id="g5385">
          <g
             transform="translate(0,-1.2976073)"
             id="g4215">
            <g
               id="g5360"
               transform="matrix(4.7790879,0,0,4.6268277,1121.4006,-5434.1434)">
              <g
                 id="g5362"
                 transform="translate(21.029118,11.99526)">
                <g
                   id="g5364"
                   style="display:inline;fill:#000000;fill-opacity:1"
                   transform="translate(-21.231184,-448.96066)">
                  <path
                     d="M 29.190406,457.00964 A 16.666666,16.666666 0 0 1 12.781674,473.67431 16.666666,16.666666 0 0 1 -4.1349426,457.52545 16.666666,16.666666 0 0 1 11.750185,440.36094 16.666666,16.666666 0 0 1 29.158479,455.97853"
                     id="path5367"
                     style="display:inline;opacity:0.95;fill:#1a1a1a;fill-opacity:1;stroke:none" />
                </g>
                <g
                   id="g5369"
                   style="display:inline"
                   transform="translate(-52.260976,-463.39581)">
                  <path
                     style="display:inline;fill:url(#linearGradient5313);fill-opacity:1;fill-rule:nonzero;stroke:none;filter:url(#filter3903)"
                     d="m 47.212688,454.13229 -4.299902,12.2408 16.933138,-2.84885 c -2.508089,-4.81664 -7.128584,-8.35607 -12.633236,-9.39195 z"
                     id="path5371" />
                  <path
                     id="path5373"
                     d="m 60.376177,465.95747 -12.75079,2.39657 10.933735,13.2401 c 2.917297,-4.58039 3.672284,-10.35157 1.817055,-15.63667 z"
                     style="display:inline;fill:url(#linearGradient5315);fill-opacity:1;fill-rule:nonzero;stroke:none;filter:url(#filter3903)" />
                  <path
                     style="display:inline;fill:url(#linearGradient5317);fill-opacity:1;fill-rule:nonzero;stroke:none;filter:url(#filter3903)"
                     d="m 56.71702,483.26997 -8.450887,-9.84423 -5.999404,16.08895 c 5.425387,0.23626 10.800869,-1.99549 14.450291,-6.24472 z"
                     id="path5375" />
                  <path
                     id="path5377"
                     d="m 39.894374,488.75729 4.299903,-12.24078 -16.933138,2.84883 c 2.50809,4.81665 7.128585,8.35608 12.633235,9.39195 z"
                     style="display:inline;fill:url(#linearGradient5319);fill-opacity:1;fill-rule:nonzero;stroke:none;filter:url(#filter3903)" />
                  <path
                     style="display:inline;fill:url(#linearGradient5321);fill-opacity:1;fill-rule:nonzero;stroke:none;filter:url(#filter3903)"
                     d="m 26.730886,476.93212 12.75079,-2.39657 -10.933734,-13.24011 c -2.917297,4.58039 -3.672285,10.35157 -1.817056,15.63668 z"
                     id="path5379" />
                  <path
                     id="path5381"
                     d="m 30.390043,459.61962 8.450887,9.84422 5.999405,-16.08895 c -5.425387,-0.23625 -10.80087,1.9955 -14.450292,6.24473 z"
                     style="display:inline;fill:url(#linearGradient5323);fill-opacity:1;fill-rule:nonzero;stroke:none;filter:url(#filter3903)" />
                  <circle
                     style="fill:url(#linearGradient5325);fill-opacity:1;stroke:none"
                     id="circle5383"
                     cx="43.553532"
                     cy="471.44479"
                     r="2.4806201" />
                </g>
              </g>
            </g>
            <g
               id="text5387"
               style="font-style:normal;font-variant:normal;font-weight:600;font-stretch:normal;font-size:124.41329956px;line-height:125%;font-family:Exo;-inkscape-font-specification:'Exo, Semi-Bold';text-align:start;letter-spacing:0px;word-spacing:0px;writing-mode:lr-tb;text-anchor:start;fill:#fcfcfc;fill-opacity:1;stroke:none;stroke-width:1px;stroke-linecap:butt;stroke-linejoin:miter;stroke-opacity:1"
               transform="scale(1.0804279,0.92555921)">
              <path
                 id="path4232"
                 style=""
                 d="m 1189.8165,-5755.2617 q 0,-20.5282 6.0963,-27.993 5.1009,-6.3451 15.5517,-6.3451 4.4788,0 10.5751,1.2441 6.2207,1.2442 11.0728,3.3592 l 0,-35.209 14.3075,0 0,97.6645 -11.446,0 -2.9859,-6.9672 q -3.3592,2.7371 -9.7043,5.2254 -6.2206,2.4883 -11.8192,2.4883 -21.648,0 -21.648,-33.4672 z m 14.432,0.7465 q 0,19.9061 10.0775,19.9061 9.8286,0 18.662,-4.7277 l 0,-35.4578 q -8.4601,-2.7371 -18.662,-2.7371 -3.3592,0 -5.4742,1.6174 -4.6033,3.608 -4.6033,21.3991 z" />
              <path
                 id="path4234"
                 style=""
                 d="m 1259.9468,-5785.743 q 11.9436,-4.1056 31.2277,-4.1056 21.7723,0 21.7723,20.4038 l 0,46.9038 -11.1972,0 -3.2347,-7.5892 q -0.3732,0.7465 -3.7324,2.6127 -3.2348,1.8662 -8.7089,3.8568 -5.4742,1.8662 -10.0775,1.8662 -8.4601,0 -13.3122,-4.9766 -4.8522,-4.9765 -4.8522,-12.1925 l 0,-6.7183 q 0,-7.7136 4.6033,-12.5657 4.6033,-4.9766 14.6808,-4.9766 10.2019,0 15.8005,0 5.5986,0 5.5986,0 0.1244,-2.8615 0.1244,-4.23 0,-1.493 -0.1244,-1.493 0,-5.1009 -2.3639,-6.9671 -2.2394,-1.8662 -6.9671,-1.8662 -9.2066,0 -29.2371,1.3685 l 0,-9.331 z m 12.3169,45.0376 q 0,3.8569 1.7418,5.2254 1.7418,1.3685 5.1009,1.3685 3.3592,0 8.2113,-1.3685 4.9765,-1.3685 8.0869,-2.7371 l 3.1103,-1.3685 0,-14.1832 -20.155,1.493 q -6.0962,0.6221 -6.0962,7.216 l 0,4.3544 z" />
              <path
                 id="path4236"
                 style=""
                 d="m 1345.1116,-5784.7477 q 2.4882,-1.6173 6.5939,-3.1103 4.1056,-1.493 9.2065,-1.493 5.101,0 7.0916,0.8709 l 0,14.0587 q -3.2347,-0.4976 -9.4554,-0.4976 -6.2207,0 -10.5751,1.6174 -4.3545,1.4929 -8.9578,5.723 l 0,45.0376 -14.4319,0 0,-66.0635 11.6948,0 2.7371,8.3357 q 3.608,-2.8615 6.0963,-4.4789 z" />
              <path
                 id="path4238"
                 style=""
                 d="m 1376.8272,-5722.541 0,-97.2912 14.432,0 0,53.8709 4.1056,0 21.1503,-22.6432 18.662,0 -26.5001,28.4907 26.5001,37.5728 -17.2935,0 -22.5188,-31.601 -4.1056,0 0,31.601 -14.432,0 z" />
              <path
                 id="path4240"
                 style=""
                 d="m 1464.8069,-5807.1421 0,18.4132 16.4225,0 0,11.8193 -16.4225,0 0,28.9883 q 0,6.9671 1.4929,9.8286 1.6174,2.7371 4.7277,3.7324 8.4601,2.6127 9.331,2.6127 l 0,9.2066 -13.6854,0 q -16.2982,0 -16.2982,-23.6385 l 0,-30.7301 -11.1972,0 0,-8.709 11.1972,-3.1103 2.7371,-18.4132 11.6949,0 z" />
              <path
                 id="path4242"
                 style=""
                 d="m 1490.7918,-5785.743 q 11.9436,-4.1056 31.2277,-4.1056 21.7723,0 21.7723,20.4038 l 0,46.9038 -11.1972,0 -3.2347,-7.5892 q -0.3733,0.7465 -3.7324,2.6127 -3.2348,1.8662 -8.7089,3.8568 -5.4742,1.8662 -10.0775,1.8662 -8.4601,0 -13.3122,-4.9766 -4.8522,-4.9765 -4.8522,-12.1925 l 0,-6.7183 q 0,-7.7136 4.6033,-12.5657 4.6033,-4.9766 14.6808,-4.9766 10.2019,0 15.8005,0 5.5986,0 5.5986,0 0.1244,-2.8615 0.1244,-4.23 0,-1.493 -0.1244,-1.493 0,-5.1009 -2.3639,-6.9671 -2.2394,-1.8662 -6.9671,-1.8662 -9.2066,0 -29.2371,1.3685 l 0,-9.331 z m 12.3169,45.0376 q 0,3.8569 1.7418,5.2254 1.7418,1.3685 5.1009,1.3685 3.3592,0 8.2113,-1.3685 4.9765,-1.3685 8.0869,-2.7371 l 3.1103,-1.3685 0,-14.1832 -20.155,1.493 q -6.0962,0.6221 -6.0962,7.216 l 0,4.3544 z" />
              <path
                 id="path4244"
                 style=""
                 d="m 1569.7359,-5820.2055 0,35.209 q 6.4695,-2.8615 12.5657,-3.7324 6.2207,-0.8709 9.8287,-0.8709 3.7324,0 7.216,1.2441 3.4835,1.1198 5.8474,3.4836 2.3638,2.2395 3.8568,5.2254 1.6174,2.8615 2.4883,6.9671 1.4929,7.3404 1.4929,17.4179 0,33.4672 -21.6479,33.4672 -5.4742,0 -11.8193,-2.4883 -6.345,-2.4883 -9.7042,-5.2254 l -2.9859,6.9672 -11.446,0 0,-97.6645 14.3075,0 z m 18.7864,85.5964 q 4.9765,0 7.4648,-4.9765 2.6127,-4.9766 2.6127,-14.9296 0,-9.9531 -1.2442,-14.8052 -1.2441,-4.9765 -3.3591,-6.5939 -1.9906,-1.6174 -5.4742,-1.6174 -10.2019,0 -18.662,2.7371 l 0,35.4578 q 8.8333,4.7277 18.662,4.7277 z" />
              <path
                 id="path4246"
                 style=""
                 d="m 1624.4389,-5746.0551 0,-73.9015 14.4319,0 0,72.1597 q 0,6.9671 1.493,9.7042 1.4929,2.7371 4.7277,3.7324 8.4601,2.6127 9.331,2.6127 l 0,9.2066 -13.1878,0 q -8.2113,0 -12.5658,-5.4742 -4.23,-5.4742 -4.23,-18.0399 z" />
              <path
                 id="path4248"
                 style=""
                 d="m 1661.7045,-5781.0153 q 3.7324,-4.9765 9.331,-6.5939 5.5986,-1.4929 12.5658,-1.4929 7.0915,0 10.3263,0.2488 3.3591,0.2488 6.7183,1.1197 3.3591,0.7465 5.3498,2.3639 1.9906,1.6173 3.6079,4.23 3.1104,4.7277 3.1104,15.8005 0,16.0493 -17.9155,16.0493 l -23.5142,0 q 0,9.7043 3.2348,12.5658 1.7418,1.6173 3.9812,2.115 2.3639,0.4976 13.3122,0.4976 10.9484,0 19.6573,-1.3685 l 0,10.0775 q -10.2018,3.4836 -32.8451,3.4836 -12.4413,0 -17.169,-7.4648 -4.6033,-7.5893 -4.6033,-26.2513 0,-18.7864 4.8521,-25.3803 z m 36.5775,15.1785 q 0,-7.4648 -2.115,-9.4555 -1.9906,-1.9906 -9.7042,-1.9906 -9.8287,0 -11.8193,2.2395 -2.6127,2.8615 -2.9859,6.7183 -0.3733,3.7324 -0.3733,7.838 l 20.6527,0 q 6.345,0 6.345,-5.3497 z" />
            </g>
          </g>
        </g>
      </g>
    </g>
  </g>
</svg>
